<svg xmlns="http://www.w3.org/2000/svg" fill="none" viewBox="0 0 24 24" id="Equal-Fill--Streamline-Rounded-Fill-Material" height="24" width="24">
  <desc>
    Equal Fill Streamline Icon: https://streamlinehq.com
  </desc>
  <path fill="#c6c6d6" d="M5.25 16.75c-0.347165 0 -0.642335 -0.12185 -0.8855 -0.3655C4.1215 16.14085 4 15.845 4 15.497s0.1215 -0.64285 0.3645 -0.8845c0.243165 -0.24165 0.538335 -0.3625 0.8855 -0.3625h13.5c0.34715 0 0.64235 0.12185 0.8855 0.3655 0.243 0.24365 0.3645 0.5395 0.3645 0.8875s-0.1215 0.64285 -0.3645 0.8845c-0.24315 0.24165 -0.53835 0.3625 -0.8855 0.3625h-13.5Zm0 -7c-0.347165 0 -0.642335 -0.12185 -0.8855 -0.3655C4.1215 9.14085 4 8.845 4 8.497s0.1215 -0.64285 0.3645 -0.8845c0.243165 -0.24165 0.538335 -0.3625 0.8855 -0.3625h13.5c0.34715 0 0.64235 0.12185 0.8855 0.3655 0.243 0.24365 0.3645 0.5395 0.3645 0.8875s-0.1215 0.64285 -0.3645 0.8845c-0.24315 0.24165 -0.53835 0.3625 -0.8855 0.3625h-13.5Z" stroke-width="0.5"></path>
</svg>